HIERARCHY
ROOT Hips
{
 OFFSET 0.000000 0.000000 0.000000
 CHANNELS 6 Xposition Yposition Zposition Yrotation Xrotation Zrotation
 JOINT Chest
 {
  OFFSET 0.000000 9.585900 0.002600
  CHANNELS 3 Yrotation Xrotation Zrotation
  JOINT Chest2
  {
   OFFSET 0.000000 9.601200 -0.005300
   CHANNELS 3 Yrotation Xrotation Zrotation
   JOINT Chest3
   {
    OFFSET 0.000000 9.561800 0.000000
    CHANNELS 3 Yrotation Xrotation Zrotation
    JOINT Chest4
    {
     OFFSET 0.000000 9.552100 0.000000
     CHANNELS 3 Yrotation Xrotation Zrotation
     JOINT Neck
     {
      OFFSET 0.000000 14.453000 0.000000
      CHANNELS 3 Yrotation Xrotation Zrotation
      JOINT Head
      {
       OFFSET 0.000000 8.936500 -0.011300
       CHANNELS 3 Yrotation Xrotation Zrotation
       End Site
       {
        OFFSET 0.000000 17.073600 -0.006000
       }
      }
     }
     JOINT RightCollar
     {
      OFFSET -2.921100 9.558500 0.000000
      CHANNELS 3 Yrotation Xrotation Zrotation
      JOINT RightShoulder
      {
       OFFSET -13.519700 0.000000 0.000000
       CHANNELS 3 Yrotation Xrotation Zrotation
       JOINT RightElbow
       {
        OFFSET 0.000000 -29.696600 0.000000
        CHANNELS 3 Yrotation Xrotation Zrotation
        JOINT RightWrist
        {
         OFFSET 0.000000 -24.004700 0.000000
         CHANNELS 3 Yrotation Xrotation Zrotation
         End Site
         {
          OFFSET 0.000000 -17.728500 0.000000
         }
        }
       }
      }
     }
     JOINT LeftCollar
     {
      OFFSET 2.921100 9.558500 0.000000
      CHANNELS 3 Yrotation Xrotation Zrotation
      JOINT LeftShoulder
      {
       OFFSET 13.519700 0.000000 0.000000
       CHANNELS 3 Yrotation Xrotation Zrotation
       JOINT LeftElbow
       {
        OFFSET 0.000000 -29.696600 0.000000
        CHANNELS 3 Yrotation Xrotation Zrotation
        JOINT LeftWrist
        {
         OFFSET 0.000000 -24.004700 0.000000
         CHANNELS 3 Yrotation Xrotation Zrotation
         End Site
         {
          OFFSET 0.000000 -17.728500 0.000000
         }
        }
       }
      }
     }
    }
   }
  }
 }
 JOINT RightHip
 {
  OFFSET -7.771700 -0.012900 -0.001300
  CHANNELS 3 Yrotation Xrotation Zrotation
  JOINT RightKnee
  {
   OFFSET 0.000000 -40.869800 0.001200
   CHANNELS 3 Yrotation Xrotation Zrotation
   JOINT RightAnkle
   {
    OFFSET 0.000000 -39.717900 0.002100
    CHANNELS 3 Yrotation Xrotation Zrotation
    JOINT RightToe
    {
     OFFSET 0.000000 -4.965400 11.033500
     CHANNELS 3 Yrotation Xrotation Zrotation
     End Site
     {
      OFFSET 0.000000 -1.423100 5.872300
     }
    }
   }
  }
 }
 JOINT LeftHip
 {
  OFFSET 7.771700 -0.012900 -0.001300
  CHANNELS 3 Yrotation Xrotation Zrotation
  JOINT LeftKnee
  {
   OFFSET 0.000000 -40.869800 0.001200
   CHANNELS 3 Yrotation Xrotation Zrotation
   JOINT LeftAnkle
   {
    OFFSET 0.000000 -39.717900 0.002100
    CHANNELS 3 Yrotation Xrotation Zrotation
    JOINT LeftToe
    {
     OFFSET 0.000000 -4.965400 11.033500
     CHANNELS 3 Yrotation Xrotation Zrotation
     End Site
     {
      OFFSET 0.000000 -1.423100 5.872300
     }
    }
   }
  }
 }
}
MOTION
Frames: 5
Frame Time: 0.008333
0.000000 85.388000 0.000000 0.000000 -5.767877 0.000000 0.000000 11.653817 0.000000 0.000000 -5.885947 0.000000 0.000000 -0.000000 0.000000 0.000000 -0.000000 0.000000 0.000000 12.528835 0.000000 0.000000 0.711642 0.000000 0.000000 -0.000000 0.000000 0.000000 0.000000 -90.000000 0.000000 -2.309062 0.000000 0.000000 2.309062 0.000000 0.000000 -0.000000 0.000000 0.000000 -0.000000 90.000000 0.000000 -2.309062 0.000000 0.000000 2.309062 0.000000 0.000000 8.520406 0.000000 0.000000 1.905762 0.000000 -0.000000 -4.658285 0.000000 0.000000 -0.000000 0.000000 0.000000 8.520406 0.000000 0.000000 1.905762 0.000000 -0.000000 -4.658285 0.000000 0.000000 -0.000000 0.000000
-120.707338 62.167285 19.122654 175.756745 -51.206235 -1.084208 5.009790 26.763427 1.114647 0.708075 4.570310 0.212404 1.153104 7.182735 0.293389 3.708862 21.713975 1.515809 5.063973 15.875714 6.539136 7.073918 -6.361602 10.440516 7.905733 6.267080 6.553138 5.788408 -9.403793 -18.317700 -90.082483 -49.549743 133.357325 -0.656248 12.291827 -14.866617 -9.204452 3.006676 -0.512747 -11.314230 -9.951505 18.440536 91.909118 -61.216348 -130.101976 9.523397 12.547909 -5.364706 4.217395 -15.712382 -4.673790 -2.849725 59.160442 -7.138115 -0.172448 -8.131738 9.321064 0.338418 -0.901989 0.130264 -5.318440 -11.761274 0.458468 37.374702 72.484053 41.877182 1.375910 -10.907686 -8.641454 0.422842 1.024654 0.186182
-120.706063 62.167604 19.123599 175.754245 -51.219697 -1.090833 5.022032 26.765187 1.116023 0.712527 4.556722 0.197345 1.159583 7.177663 0.291909 3.721543 21.683281 1.475050 4.906511 15.939347 6.713589 6.719381 -6.275211 10.753000 7.906427 6.303536 6.576045 5.900267 -9.342614 -18.374475 -90.267088 -49.514191 133.560363 -0.605746 12.156740 -14.932258 -9.195870 3.060655 -0.461492 -11.318628 -9.926975 18.496042 92.122157 -61.212289 -130.332301 9.624300 12.419005 -5.228055 4.215391 -15.698631 -4.663518 -2.846550 59.156631 -7.132785 -0.180815 -8.128678 9.325289 0.343825 -0.902029 0.126559 -5.318938 -11.748219 0.459205 37.402447 72.479766 41.910045 1.381912 -10.905791 -8.634279 0.416590 1.024484 0.173270
-120.704762 62.167475 19.125017 175.753979 -51.232003 -1.100912 5.034425 26.765583 1.119897 0.719625 4.543257 0.183709 1.164099 7.170813 0.290270 3.736665 21.668698 1.459993 4.739629 15.994753 6.851581 6.365479 -6.176209 11.046209 7.898977 6.332416 6.621019 6.021503 -9.287764 -18.472741 -90.446885 -49.484295 133.749975 -0.549394 12.022239 -14.995327 -9.195050 3.099157 -0.427300 -11.322054 -9.906605 18.546322 92.331629 -61.196077 -130.545294 9.724210 12.311255 -5.091119 4.211180 -15.685427 -4.650057 -2.846073 59.150872 -7.132299 -0.188615 -8.125959 9.334936 0.347184 -0.902000 0.122307 -5.320758 -11.735568 0.462263 37.409569 72.476992 41.926731 1.386950 -10.904121 -8.639500 0.412473 1.026795 0.172357
-120.704024 62.167174 19.126505 175.751603 -51.245020 -1.108163 5.063018 26.727872 1.094641 0.716437 4.565261 0.205613 1.160620 7.181252 0.303354 3.745845 21.645050 1.439371 4.572369 16.049270 6.965148 6.017585 -6.065246 11.317016 7.897791 6.356593 6.651996 6.136229 -9.239380 -18.563629 -90.618085 -49.454807 133.921571 -0.471472 11.891504 -15.041312 -9.198104 3.138870 -0.397288 -11.311999 -9.889586 18.622524 92.522830 -61.125736 -130.740305 9.820445 12.217941 -4.950343 4.206065 -15.672005 -4.636562 -2.853373 59.143405 -7.141991 -0.187172 -8.119780 9.335898 0.349253 -0.904931 0.127098 -5.324846 -11.722232 0.463219 37.393872 72.479266 41.916689 1.409084 -10.899693 -8.640896 0.398670 1.029793 0.170953
